[
  {
    "track": 1,
    "pitch": 69,
    "velocity": 39,
    "start_time": 31024,
    "end_time": 31058,
    "duration": 34
  },
  {
    "track": 1,
    "pitch": 64,
    "velocity": 39,
    "start_time": 31058,
    "end_time": 31092,
    "duration": 34
  },
  {
    "track": 1,
    "pitch": 72,
    "velocity": 39,
    "start_time": 31092,
    "end_time": 31126,
    "duration": 34
  },
  {
    "track": 1,
    "pitch": 69,
    "velocity": 39,
    "start_time": 31126,
    "end_time": 31161,
    "duration": 34
  },
  {
    "track": 1,
    "pitch": 73,
    "velocity": 39,
    "start_time": 31161,
    "end_time": 31195,
    "duration": 34
  },
  {
    "track": 1,
    "pitch": 74,
    "velocity": 39,
    "start_time": 31195,
    "end_time": 31229,
    "duration": 34
  },
  {
    "track": 1,
    "pitch": 64,
    "velocity": 39,
    "start_time": 31229,
    "end_time": 31263,
    "duration": 34
  },
  {
    "track": 1,
    "pitch": 75,
    "velocity": 39,
    "start_time": 31263,
    "end_time": 31298,
    "duration": 34
  },
  {
    "track": 1,
    "pitch": 73,
    "velocity": 39,
    "start_time": 31298,
    "end_time": 31332,
    "duration": 34
  },
  {
    "track": 1,
    "pitch": 71,
    "velocity": 39,
    "start_time": 31332,
    "end_time": 31366,
    "duration": 34
  },
  {
    "track": 1,
    "pitch": 66,
    "velocity": 39,
    "start_time": 31366,
    "end_time": 31400,
    "duration": 34
  },
  {
    "track": 1,
    "pitch": 66,
    "velocity": 39,
    "start_time": 31400,
    "end_time": 31435,
    "duration": 34
  },
  {
    "track": 1,
    "pitch": 71,
    "velocity": 39,
    "start_time": 31435,
    "end_time": 31469,
    "duration": 34
  },
  {
    "track": 1,
    "pitch": 74,
    "velocity": 39,
    "start_time": 31469,
    "end_time": 31503,
    "duration": 34
  },
  {
    "track": 1,
    "pitch": 69,
    "velocity": 39,
    "start_time": 31503,
    "end_time": 31537,
    "duration": 34
  },
  {
    "track": 1,
    "pitch": 72,
    "velocity": 39,
    "start_time": 31537,
    "end_time": 31572,
    "duration": 34
  },
  {
    "track": 1,
    "pitch": 71,
    "velocity": 39,
    "start_time": 31572,
    "end_time": 31606,
    "duration": 34
  },
  {
    "track": 1,
    "pitch": 68,
    "velocity": 39,
    "start_time": 31606,
    "end_time": 31640,
    "duration": 34
  },
  {
    "track": 1,
    "pitch": 73,
    "velocity": 39,
    "start_time": 31640,
    "end_time": 31674,
    "duration": 34
  },
  {
    "track": 1,
    "pitch": 76,
    "velocity": 39,
    "start_time": 31674,
    "end_time": 31709,
    "duration": 34
  },
  {
    "track": 1,
    "pitch": 66,
    "velocity": 39,
    "start_time": 31709,
    "end_time": 31743,
    "duration": 34
  },
  {
    "track": 1,
    "pitch": 76,
    "velocity": 39,
    "start_time": 31743,
    "end_time": 31777,
    "duration": 34
  },
  {
    "track": 1,
    "pitch": 71,
    "velocity": 39,
    "start_time": 31777,
    "end_time": 31811,
    "duration": 34
  },
  {
    "track": 1,
    "pitch": 74,
    "velocity": 39,
    "start_time": 31811,
    "end_time": 31846,
    "duration": 34
  },
  {
    "track": 1,
    "pitch": 66,
    "velocity": 39,
    "start_time": 31846,
    "end_time": 31880,
    "duration": 34
  },
  {
    "track": 1,
    "pitch": 62,
    "velocity": 39,
    "start_time": 31880,
    "end_time": 31914,
    "duration": 34
  },
  {
    "track": 1,
    "pitch": 64,
    "velocity": 39,
    "start_time": 31914,
    "end_time": 31948,
    "duration": 34
  },
  {
    "track": 1,
    "pitch": 74,
    "velocity": 39,
    "start_time": 31948,
    "end_time": 31983,
    "duration": 34
  },
  {
    "track": 1,
    "pitch": 69,
    "velocity": 39,
    "start_time": 31983,
    "end_time": 32017,
    "duration": 34
  },
  {
    "track": 1,
    "pitch": 66,
    "velocity": 39,
    "start_time": 32017,
    "end_time": 32051,
    "duration": 34
  },
  {
    "track": 1,
    "pitch": 71,
    "velocity": 39,
    "start_time": 32051,
    "end_time": 32085,
    "duration": 34
  },
  {
    "track": 1,
    "pitch": 66,
    "velocity": 39,
    "start_time": 32085,
    "end_time": 32120,
    "duration": 34
  },
  {
    "track": 1,
    "pitch": 73,
    "velocity": 39,
    "start_time": 32120,
    "end_time": 32154,
    "duration": 34
  },
  {
    "track": 1,
    "pitch": 74,
    "velocity": 39,
    "start_time": 32154,
    "end_time": 32188,
    "duration": 34
  },
  {
    "track": 1,
    "pitch": 62,
    "velocity": 39,
    "start_time": 32188,
    "end_time": 32222,
    "duration": 34
  },
  {
    "track": 1,
    "pitch": 71,
    "velocity": 39,
    "start_time": 32222,
    "end_time": 32257,
    "duration": 34
  },
  {
    "track": 1,
    "pitch": 71,
    "velocity": 39,
    "start_time": 32257,
    "end_time": 32291,
    "duration": 34
  },
  {
    "track": 1,
    "pitch": 71,
    "velocity": 39,
    "start_time": 32291,
    "end_time": 32325,
    "duration": 34
  },
  {
    "track": 1,
    "pitch": 73,
    "velocity": 39,
    "start_time": 32325,
    "end_time": 32359,
    "duration": 34
  },
  {
    "track": 1,
    "pitch": 74,
    "velocity": 39,
    "start_time": 32359,
    "end_time": 32394,
    "duration": 34
  },
  {
    "track": 1,
    "pitch": 74,
    "velocity": 39,
    "start_time": 32394,
    "end_time": 32428,
    "duration": 34
  },
  {
    "track": 1,
    "pitch": 66,
    "velocity": 39,
    "start_time": 32428,
    "end_time": 32462,
    "duration": 34
  },
  {
    "track": 1,
    "pitch": 66,
    "velocity": 39,
    "start_time": 32462,
    "end_time": 32496,
    "duration": 34
  },
  {
    "track": 1,
    "pitch": 71,
    "velocity": 39,
    "start_time": 32496,
    "end_time": 32531,
    "duration": 34
  },
  {
    "track": 1,
    "pitch": 66,
    "velocity": 39,
    "start_time": 32531,
    "end_time": 32565,
    "duration": 34
  },
  {
    "track": 1,
    "pitch": 74,
    "velocity": 39,
    "start_time": 32565,
    "end_time": 32599,
    "duration": 34
  },
  {
    "track": 1,
    "pitch": 67,
    "velocity": 39,
    "start_time": 32599,
    "end_time": 32633,
    "duration": 34
  },
  {
    "track": 1,
    "pitch": 66,
    "velocity": 39,
    "start_time": 32633,
    "end_time": 32668,
    "duration": 34
  },
  {
    "track": 1,
    "pitch": 64,
    "velocity": 39,
    "start_time": 32668,
    "end_time": 32702,
    "duration": 34
  },
  {
    "track": 1,
    "pitch": 71,
    "velocity": 39,
    "start_time": 32702,
    "end_time": 32736,
    "duration": 34
  }
]